<svg width="73" height="100" viewBox="0 0 73 100" fill="none" xmlns="http://www.w3.org/2000/svg">
<path d="M36.1249 0C31.0478 0.0382979 26.786 4.10417 26.6398 8.44428C26.3221 17.1519 26.0985 25.9379 25.8438 34.6739L17.3536 14.1618C14.9806 10.3341 10.0225 9.28903 5.87854 10.7376C1.65828 12.7039 -0.921196 16.9844 0.306832 21.01L13.6391 60.4053C6.74972 81.8548 23.3261 100 41.3982 100C51.3717 100 60.2505 96.6198 65.9733 90.2259C71.6547 83.8787 73.9888 74.5883 71.3129 63.5303C71.3129 56.8617 71.3129 50.1778 71.3129 43.5166C70.7965 39.4029 66.7979 37.2784 62.9384 37.2334C60.1968 37.2876 58.461 38.5717 56.6872 40.4249C55.1704 38.2226 52.4484 37.2662 50.1613 37.2002C48.5539 37.1853 46.9404 37.9096 45.8423 38.6297V8.57628C45.8706 3.60628 41.5511 0.0447872 36.1249 0ZM36.1249 4.25532C38.7573 4.29043 41.4092 5.86331 41.6303 8.41097C41.5652 23.2733 41.5972 34.3105 41.5972 48.0058C38.3635 47.4063 34.7915 48.6529 32.6758 50.7651C27.2791 58.7323 21.936 66.8582 16.5909 74.9008C15.8316 70.6504 16.123 65.9571 17.8511 61.0045C18.0064 60.5564 18.0064 60.0562 17.8511 59.6081C13.3268 46.2241 8.76851 32.8192 4.25351 19.4482C4.00116 17.7319 5.32944 15.4496 7.23835 14.7608C9.67189 14.1797 11.918 14.332 13.5397 16.0911L25.7112 45.4796C26.0832 46.3679 27.1212 46.9199 28.0659 46.7429C29.0106 46.5657 29.7639 45.678 29.7905 44.7149L30.8518 8.54447C30.9105 5.96085 33.7045 4.32574 36.125 4.25532H36.1249ZM50.1046 41.48C52.1708 41.5683 54.0581 42.4258 54.3325 44.2158V59.5749V63.8302C54.2213 66.1347 52.0108 66.9948 50.0873 67.0218C48.422 66.8799 47.2775 66.3041 46.2734 65.1933C46.7188 64.5845 47.2117 63.8148 47.5668 63.2322C50.4216 58.7739 49.1605 53.4658 45.8423 50.2667V43.7838C46.1077 42.2084 48.4576 41.4928 50.1046 41.48ZM62.9384 41.4907C64.922 41.4694 66.6718 42.2636 67.0678 43.6183C67.0678 48.9243 67.0678 54.2593 67.0678 59.5756C67.0038 61.6919 64.7461 62.7401 62.8227 62.7671C60.566 62.583 58.8194 61.7571 58.5776 59.5756V44.5157C58.6598 42.9486 61.0703 41.5346 62.9384 41.4907ZM42.3931 52.8605C44.6238 54.8784 45.4833 57.7955 44.3499 60.5732C40.6949 65.6607 37.1035 70.9025 33.5049 76.0654C33.0326 76.7568 33.023 77.735 33.4818 78.4355C33.9407 79.1361 34.84 79.5163 35.6606 79.3567C40.695 78.3248 45.2598 78.3772 48.8271 81.1186C50.656 82.524 51.6886 84.0119 52.5084 86.1718C53.2078 88.0144 53.6829 90.3988 54.1335 93.386C50.4008 94.9183 46.0876 95.7464 41.3982 95.7464C31.6441 95.7464 22.1761 89.6009 18.1827 80.221L35.7601 53.6916C37.6513 52.102 40.2299 51.734 42.3931 52.8605H42.3931ZM67.4658 65.7928C69.4281 75.1786 67.3411 82.354 62.8227 87.4018C61.4803 88.9016 59.8837 90.205 58.1133 91.3248C57.6951 88.8259 57.2022 86.6443 56.455 84.6759C55.4176 81.9424 53.797 79.6178 51.3808 77.7609C47.8698 75.0628 43.791 74.3564 39.7067 74.5694L43.7529 68.7847C45.5127 70.3157 48.1045 71.2534 50.0873 71.2781C54.3747 71.1403 57.1295 69.2233 58.2459 65.826C59.6249 66.6059 61.2081 67.0228 62.8227 67.0228C64.4595 67.0228 66.0647 66.5935 67.4658 65.7928Z" fill="#6E8C9E"/>
</svg>
