<svg width="91" height="91" viewBox="0 0 91 91" fill="none" xmlns="http://www.w3.org/2000/svg">
<path d="M64.3672 65.764H26.1553C24.9391 65.764 23.7725 65.2823 22.9112 64.4245C22.0499 63.5667 21.5642 62.4028 21.5605 61.1879V4.57608C21.5642 3.36117 22.0499 2.19726 22.9112 1.33947C23.7725 0.481678 24.9391 -5.41282e-06 26.1553 0H56.2338C56.5936 0.00151342 56.9384 0.144209 57.1939 0.397324L68.5779 11.7142C68.7075 11.8411 68.8106 11.9924 68.8812 12.1594C68.9519 12.3264 68.9886 12.5057 68.9894 12.687V61.1331C68.9948 61.7416 68.8791 62.3451 68.6489 62.9085C68.4188 63.472 68.0787 63.984 67.6486 64.415C67.2185 64.8459 66.7069 65.1871 66.1435 65.4187C65.5802 65.6503 64.9764 65.7677 64.3672 65.764ZM26.1553 2.74017C25.6666 2.74015 25.1977 2.93314 24.8508 3.27705C24.504 3.62096 24.3073 4.08791 24.3037 4.57608V61.1331C24.2982 61.3794 24.342 61.6244 24.4326 61.8536C24.5232 62.0827 24.6588 62.2915 24.8312 62.4676C25.0037 62.6438 25.2097 62.7837 25.4371 62.8792C25.6645 62.9747 25.9086 63.0239 26.1553 63.0238H64.3672C64.8559 63.0238 65.3248 62.8309 65.6717 62.4869C66.0185 62.143 66.2152 61.6761 66.2188 61.1879V13.2624L55.6714 2.74017H26.1553Z" fill="#E69983"/>
<path d="M49.3765 9.59059H29.7905C29.4268 9.59059 29.0779 9.44624 28.8207 9.1893C28.5635 8.93235 28.4189 8.58387 28.4189 8.22049C28.4189 7.85712 28.5635 7.50864 28.8207 7.25169C29.0779 6.99475 29.4268 6.8504 29.7905 6.8504H49.3765C49.7403 6.8504 50.0891 6.99475 50.3464 7.25169C50.6036 7.50864 50.7481 7.85712 50.7481 8.22049C50.7481 8.58387 50.6036 8.93235 50.3464 9.1893C50.0891 9.44624 49.7403 9.59059 49.3765 9.59059Z" fill="#E69983"/>
<path d="M49.3765 15.893H29.7905C29.4268 15.893 29.0779 15.7486 28.8207 15.4917C28.5635 15.2347 28.4189 14.8862 28.4189 14.5228C28.4189 14.1595 28.5635 13.811 28.8207 13.554C29.0779 13.2971 29.4268 13.1527 29.7905 13.1527H49.3765C49.7403 13.1527 50.0891 13.2971 50.3464 13.554C50.6036 13.811 50.7481 14.1595 50.7481 14.5228C50.7481 14.8862 50.6036 15.2347 50.3464 15.4917C50.0891 15.7486 49.7403 15.893 49.3765 15.893Z" fill="#E69983"/>
<path d="M60.7331 22.1953H29.7905C29.4268 22.1953 29.0779 22.051 28.8207 21.794C28.5635 21.5371 28.4189 21.1886 28.4189 20.8253C28.4189 20.4619 28.5635 20.1134 28.8207 19.8565C29.0779 19.5995 29.4268 19.4552 29.7905 19.4552H60.7331C61.0969 19.4552 61.4457 19.5995 61.7029 19.8565C61.9602 20.1134 62.1047 20.4619 62.1047 20.8253C62.1047 21.1886 61.9602 21.5371 61.7029 21.794C61.4457 22.051 61.0969 22.1953 60.7331 22.1953Z" fill="#E69983"/>
<path d="M67.5914 14.0572H58.6625C57.6573 14.0572 56.693 13.6593 55.9809 12.9505C55.2688 12.2417 54.8669 11.2799 54.8633 10.2758V1.37017C54.8644 1.10084 54.945 0.83781 55.0949 0.61396C55.2448 0.39011 55.4575 0.215367 55.7063 0.11157C55.955 0.00777381 56.229 -0.0204711 56.4937 0.0303658C56.7585 0.0812026 57.0024 0.208866 57.1949 0.3974L68.579 11.7144C68.7716 11.9052 68.9032 12.1488 68.9572 12.4143C69.0112 12.6798 68.9852 12.9554 68.8825 13.2062C68.7797 13.457 68.6048 13.6717 68.3799 13.8231C68.155 13.9746 67.8901 14.0561 67.6189 14.0572H67.5914ZM57.6064 4.67209V10.2758C57.6064 10.5519 57.7162 10.8168 57.9117 11.0121C58.1072 11.2073 58.3723 11.317 58.6488 11.317H64.2585L57.6064 4.67209Z" fill="#E69983"/>
<path d="M60.733 43.2399H58.8677C58.5039 43.2399 58.155 43.0955 57.8978 42.8386C57.6406 42.5816 57.4961 42.2332 57.4961 41.8698C57.4961 41.5064 57.6406 41.1579 57.8978 40.901C58.155 40.644 58.5039 40.4997 58.8677 40.4997H60.733C61.0968 40.4997 61.4456 40.644 61.7028 40.901C61.9601 41.1579 62.1046 41.5064 62.1046 41.8698C62.1046 42.2332 61.9601 42.5816 61.7028 42.8386C61.4456 43.0955 61.0968 43.2399 60.733 43.2399Z" fill="#E69983"/>
<path d="M54.8619 33.6218C54.6814 33.6228 54.5025 33.5883 54.3354 33.5201C54.1682 33.4519 54.0163 33.3514 53.8881 33.2245C53.6326 32.9678 53.4893 32.6205 53.4893 32.2586C53.4893 31.8966 53.6326 31.5494 53.8881 31.2927L55.2597 29.9227C55.522 29.6982 55.8596 29.581 56.2047 29.5943C56.5499 29.6076 56.8774 29.7505 57.1216 29.9945C57.3659 30.2385 57.509 30.5656 57.5223 30.9104C57.5357 31.2552 57.4183 31.5923 57.1936 31.8544L55.822 33.2245C55.5665 33.4776 55.2217 33.6203 54.8619 33.6218Z" fill="#E69983"/>
<path d="M45.2612 29.6487C44.8975 29.6487 44.5486 29.5043 44.2914 29.2474C44.0342 28.9905 43.8896 28.642 43.8896 28.2786V26.4153C43.8896 26.0519 44.0342 25.7034 44.2914 25.4465C44.5486 25.1895 44.8975 25.0452 45.2612 25.0452C45.625 25.0452 45.9739 25.1895 46.2311 25.4465C46.4883 25.7034 46.6328 26.0519 46.6328 26.4153V28.2786C46.6328 28.642 46.4883 28.9905 46.2311 29.2474C45.9739 29.5043 45.625 29.6487 45.2612 29.6487Z" fill="#E69983"/>
<path d="M35.6615 33.6218C35.3016 33.6203 34.9568 33.4776 34.7014 33.2245L33.3298 31.8544C33.1051 31.5923 32.9877 31.2552 33.001 30.9104C33.0144 30.5656 33.1575 30.2385 33.4017 29.9945C33.646 29.7505 33.9734 29.6076 34.3186 29.5943C34.6638 29.581 35.0013 29.6982 35.2637 29.9227L36.6353 31.2927C36.8907 31.5494 37.0341 31.8966 37.0341 32.2586C37.0341 32.6205 36.8907 32.9678 36.6353 33.2245C36.5071 33.3514 36.3551 33.4519 36.188 33.5201C36.0209 33.5883 35.842 33.6228 35.6615 33.6218Z" fill="#E69983"/>
<path d="M31.6558 43.2399H29.7905C29.4267 43.2399 29.0779 43.0955 28.8207 42.8386C28.5635 42.5816 28.4189 42.2332 28.4189 41.8698C28.4189 41.5064 28.5635 41.1579 28.8207 40.901C29.0779 40.644 29.4267 40.4997 29.7905 40.4997H31.6558C32.0196 40.4997 32.3685 40.644 32.6257 40.901C32.8829 41.1579 33.0274 41.5064 33.0274 41.8698C33.0274 42.2332 32.8829 42.5816 32.6257 42.8386C32.3685 43.0955 32.0196 43.2399 31.6558 43.2399Z" fill="#E69983"/>
<path d="M34.2896 54.1593C34.1091 54.1604 33.9302 54.1258 33.7631 54.0576C33.596 53.9895 33.444 53.889 33.3158 53.762C33.0604 53.5053 32.917 53.1581 32.917 52.7961C32.917 52.4342 33.0604 52.0869 33.3158 51.8302L34.6874 50.4602C34.9498 50.2357 35.2873 50.1184 35.6325 50.1318C35.9777 50.1451 36.3051 50.288 36.5494 50.532C36.7937 50.776 36.9367 51.1031 36.9501 51.4479C36.9634 51.7927 36.846 52.1299 36.6213 52.392L35.2497 53.762C34.9943 54.0151 34.6495 54.1578 34.2896 54.1593Z" fill="#E69983"/>
<path d="M49.0204 58.9137H41.4905C41.1268 58.9137 40.7779 58.7693 40.5207 58.5124C40.2635 58.2554 40.119 57.907 40.119 57.5436C40.1136 54.1547 39.0332 50.8546 37.0329 48.1174C35.8808 46.5876 35.175 44.769 34.9938 42.8631C34.8126 40.9573 35.163 39.0385 36.0061 37.3193C36.8493 35.6001 38.1524 34.1476 39.7711 33.1226C41.3898 32.0976 43.2609 31.5402 45.1772 31.512C47.0935 31.4838 48.9803 31.986 50.6284 32.963C52.2766 33.9399 53.622 35.3535 54.5154 37.0472C55.4089 38.7408 55.8157 40.6485 55.6907 42.5589C55.5657 44.4692 54.9138 46.3077 53.8072 47.8708C51.7039 50.6696 50.5118 54.046 50.392 57.5436C50.392 57.907 50.2475 58.2554 49.9903 58.5124C49.7331 58.7693 49.3842 58.9137 49.0204 58.9137ZM42.7935 56.1735H47.7175C48.0763 52.6154 49.3835 49.2184 51.503 46.3363C52.3276 45.1427 52.8026 43.743 52.8745 42.2946C52.9507 40.7634 52.5641 39.2447 51.7652 37.9357C50.9662 36.6267 49.7918 35.5879 48.3943 34.9541C46.9968 34.3204 45.4408 34.121 43.9284 34.3819C42.416 34.6427 41.0171 35.3518 39.9132 36.4169C39.1786 37.1284 38.5947 37.9802 38.1965 38.9217C37.7983 39.8632 37.5938 40.8752 37.5953 41.8973C37.5851 43.5548 38.1254 45.1689 39.1314 46.487C41.2418 49.3065 42.5113 52.6644 42.7935 56.1735Z" fill="#E69983"/>
<path d="M41.7368 43.2399C41.373 43.2399 41.0242 43.0955 40.767 42.8386C40.5097 42.5816 40.3652 42.2332 40.3652 41.8698C40.3689 40.575 40.8863 39.3344 41.8042 38.4201C42.7221 37.5058 43.9655 36.9924 45.2617 36.9924C45.6255 36.9924 45.9744 37.1367 46.2316 37.3937C46.4888 37.6506 46.6333 37.9991 46.6333 38.3624C46.6333 38.7258 46.4888 39.0743 46.2316 39.3312C45.9744 39.5882 45.6255 39.7325 45.2617 39.7325C44.6906 39.7325 44.1429 39.9591 43.7391 40.3625C43.3352 40.7659 43.1084 41.313 43.1084 41.8835C43.1048 42.2445 42.9587 42.5895 42.7018 42.8434C42.445 43.0974 42.0982 43.2399 41.7368 43.2399Z" fill="#E69983"/>
<path d="M56.2337 54.1593C55.8739 54.1578 55.5291 54.0151 55.2736 53.762L53.9021 52.392C53.6774 52.1299 53.56 51.7927 53.5733 51.4479C53.5866 51.1031 53.7297 50.776 53.974 50.532C54.2183 50.288 54.5457 50.1451 54.8909 50.1318C55.2361 50.1184 55.5736 50.2357 55.836 50.4602L57.2075 51.8302C57.463 52.0869 57.6064 52.4342 57.6064 52.7961C57.6064 53.1581 57.463 53.5053 57.2075 53.762C57.0794 53.889 56.9274 53.9895 56.7603 54.0576C56.5932 54.1258 56.4142 54.1604 56.2337 54.1593Z" fill="#E69983"/>
<path d="M85.0372 90.4256H5.48627C4.03122 90.4256 2.63577 89.8482 1.60689 88.8205C0.578016 87.7927 0 86.3988 0 84.9453V79.4649C0 79.1016 0.144504 78.7531 0.401723 78.4961C0.658942 78.2392 1.00781 78.0948 1.37157 78.0948H35.3453C35.5986 78.0956 35.8467 78.1664 36.0622 78.2994C36.2776 78.4324 36.452 78.6224 36.566 78.8484L38.1982 82.0818H52.3116L53.9575 78.8484C54.0715 78.6224 54.2458 78.4324 54.4613 78.2994C54.6768 78.1664 54.9249 78.0956 55.1782 78.0948H89.1519C89.5157 78.0948 89.8645 78.2392 90.1217 78.4961C90.379 78.7531 90.5235 79.1016 90.5235 79.4649V84.9453C90.5235 86.3988 89.9455 87.7927 88.9166 88.8205C87.8877 89.8482 86.4922 90.4256 85.0372 90.4256ZM2.74314 80.835V84.9453C2.74314 85.672 3.03214 86.369 3.54658 86.8829C4.06102 87.3968 4.75875 87.6855 5.48627 87.6855H85.0372C85.7647 87.6855 86.4625 87.3968 86.9769 86.8829C87.4913 86.369 87.7803 85.672 87.7803 84.9453V80.835H56.0285L54.3827 84.0684C54.2687 84.2944 54.0943 84.4844 53.8788 84.6174C53.6634 84.7504 53.4152 84.8212 53.162 84.822H37.3615C37.1082 84.8212 36.8601 84.7504 36.6446 84.6174C36.4292 84.4844 36.2548 84.2944 36.1408 84.0684L34.4949 80.835H2.74314Z" fill="#E69983"/>
<path d="M84.5978 80.835C84.234 80.835 83.8851 80.6907 83.6279 80.4337C83.3707 80.1768 83.2262 79.8283 83.2262 79.4649V23.0723C83.2262 22.7089 83.0817 22.3604 82.8245 22.1035C82.5673 21.8465 82.2184 21.7022 81.8546 21.7022H67.5903C67.2266 21.7022 66.8777 21.5579 66.6205 21.3009C66.3633 21.044 66.2188 20.6955 66.2188 20.3321C66.2188 19.9688 66.3633 19.6203 66.6205 19.3633C66.8777 19.1064 67.2266 18.962 67.5903 18.962H81.8546C82.9459 18.962 83.9925 19.3951 84.7642 20.1659C85.5358 20.9367 85.9693 21.9822 85.9693 23.0723V79.4649C85.9693 79.8283 85.8248 80.1768 85.5676 80.4337C85.3104 80.6907 84.9615 80.835 84.5978 80.835Z" fill="#E69983"/>
<path d="M5.92625 80.835C5.56249 80.835 5.21363 80.6907 4.95641 80.4337C4.69919 80.1768 4.55469 79.8283 4.55469 79.4649V23.0723C4.55469 21.9822 4.9882 20.9367 5.75985 20.1659C6.53151 19.3951 7.5781 18.962 8.66938 18.962H22.9336C23.2974 18.962 23.6463 19.1064 23.9035 19.3633C24.1607 19.6203 24.3052 19.9688 24.3052 20.3321C24.3052 20.6955 24.1607 21.044 23.9035 21.3009C23.6463 21.5579 23.2974 21.7022 22.9336 21.7022H8.66938C8.30562 21.7022 7.95676 21.8465 7.69954 22.1035C7.44232 22.3604 7.29782 22.7089 7.29782 23.0723V79.4649C7.29782 79.8283 7.15331 80.1768 6.89609 80.4337C6.63888 80.6907 6.29001 80.835 5.92625 80.835Z" fill="#E69983"/>
</svg>
