<svg width="71" height="91" viewBox="0 0 71 91" fill="none" xmlns="http://www.w3.org/2000/svg">
<path d="M61.6192 17.7915H56.7901V12.5685C56.7901 11.7045 56.0897 11.0033 55.2232 11.0033H44.8426V5.11504C44.8426 2.29457 42.5456 0 39.722 0H30.8833C28.0582 0 25.7611 2.29457 25.7611 5.11504V11.0033H15.4244C14.5579 11.0033 13.8575 11.7045 13.8575 12.5685V17.7915H8.6727C3.89057 17.7915 0 21.6779 0 26.4548V82.091C0 86.868 3.89057 90.7559 8.6727 90.7559H61.6161C66.3982 90.7559 70.2888 86.8696 70.2888 82.091V26.4548C70.2919 21.6779 66.3998 17.7915 61.6192 17.7915ZM28.8965 5.11504C28.8965 4.02097 29.788 3.13038 30.8848 3.13038H39.7236C40.8189 3.13038 41.7104 4.02097 41.7104 5.11504V11.0033H28.898V5.11504H28.8965ZM16.9928 14.1337H53.6548V19.3567C53.6548 22.1631 51.2606 24.5359 48.4261 24.5359H22.1777C19.3197 24.5359 16.9928 22.2132 16.9928 19.3567V14.1337ZM67.1582 82.0926C67.1582 85.1447 64.6731 87.6271 61.6192 87.6271H8.67426C5.62041 87.6271 3.13533 85.1447 3.13533 82.0926V26.4548C3.13533 23.4043 5.62041 20.9219 8.67426 20.9219H14.0173C14.7538 24.7566 18.1273 27.6663 22.1761 27.6663H48.4261C52.4984 27.6663 55.8892 24.7566 56.6287 20.9219H61.6177C64.6715 20.9219 67.1566 23.4043 67.1566 26.4548V82.0926H67.1582Z" fill="#FFD68A"/>
<path d="M35.1469 37.5349C25.9085 37.5349 18.3906 45.0431 18.3906 54.273C18.3906 63.5029 25.9085 71.0127 35.1469 71.0127C44.3852 71.0127 51.9031 63.5045 51.9031 54.2746C51.9031 45.0446 44.3852 37.5349 35.1469 37.5349ZM26.8988 65.0791C29.1833 63.121 32.0538 62.0489 35.1469 62.0489C38.1866 62.0489 41.1104 63.1445 43.3902 65.0822C41.0979 66.8305 38.2477 67.8823 35.1469 67.8823C32.046 67.8823 29.1911 66.8305 26.8988 65.0791ZM45.6716 62.9035C42.7948 60.3569 39.0453 58.9201 35.1469 58.9201C31.1874 58.9201 27.5067 60.3225 24.619 62.9003C22.687 60.551 21.5228 57.5458 21.5228 54.2746C21.5228 46.771 27.6337 40.6668 35.1453 40.6668C42.6569 40.6668 48.7678 46.771 48.7678 54.2746C48.7693 57.5458 47.6051 60.5526 45.6716 62.9035Z" fill="#FFD68A"/>
<path d="M35.1459 42.2383C30.6818 42.2383 27.0498 45.8664 27.0498 50.3256C27.0498 54.8098 30.6818 58.4567 35.1459 58.4567C39.6099 58.4567 43.2419 54.8083 43.2419 50.3256C43.2419 45.8664 39.6099 42.2383 35.1459 42.2383ZM35.1459 55.3264C32.4101 55.3264 30.1836 53.0819 30.1836 50.3256C30.1836 47.5928 32.4101 45.3687 35.1459 45.3687C37.8816 45.3687 40.1081 47.5928 40.1081 50.3256C40.1081 53.0819 37.8816 55.3264 35.1459 55.3264Z" fill="#FFD68A"/>
<path d="M37.5301 5.53131H32.7651C31.8986 5.53131 31.1982 6.23253 31.1982 7.09653C31.1982 7.96053 31.8986 8.66174 32.7651 8.66174H37.5301C38.3965 8.66174 39.0969 7.96053 39.0969 7.09653C39.0969 6.23253 38.395 5.53131 37.5301 5.53131Z" fill="#FFD68A"/>
</svg>
